<svg width="30" height="30" viewBox="0 0 30 30" fill="none" xmlns="http://www.w3.org/2000/svg">
<path fill-rule="evenodd" clip-rule="evenodd" d="M0 15C0 6.71573 6.71573 0 15 0C23.2843 0 30 6.71573 30 15C30 23.2843 23.2843 30 15 30C6.71573 30 0 23.2843 0 15Z" fill="#EE8208"/>
<path d="M19.7616 10.8527C19.7616 13.2915 17.6211 15.2754 14.9878 15.2754C12.3552 15.2754 10.2141 13.2915 10.2141 10.8527C10.2141 8.41307 12.3552 6.42871 14.9878 6.42871C17.6211 6.42871 19.7616 8.41307 19.7616 10.8527ZM16.9644 10.8527C16.9644 9.84264 16.0778 9.02131 14.9879 9.02131C13.8987 9.02131 13.0113 9.84264 13.0113 10.8527C13.0113 11.8619 13.8987 12.6838 14.9879 12.6838C16.0778 12.6838 16.9644 11.8619 16.9644 10.8527Z" fill="white"/>
<path d="M16.9315 18.8861C17.9032 18.6809 18.8404 18.3247 19.7035 17.8223C20.3568 17.4406 20.5536 16.6405 20.142 16.0351C19.7307 15.4285 18.8678 15.2458 18.2134 15.6275C16.258 16.767 13.7404 16.7667 11.7861 15.6275C11.1317 15.2458 10.2686 15.4285 9.85812 16.0351C9.44652 16.641 9.64275 17.4406 10.296 17.8223C11.1592 18.3241 12.0963 18.6809 13.068 18.8861L10.3991 21.3593C9.85355 21.8654 9.85355 22.6859 10.3997 23.192C10.673 23.4448 11.0306 23.5713 11.3882 23.5713C11.7464 23.5713 12.1046 23.4448 12.378 23.192L14.9995 20.7616L17.6233 23.192C18.1688 23.6981 19.054 23.6981 19.6001 23.192C20.1468 22.6859 20.1468 21.8649 19.6001 21.3593L16.9315 18.8861Z" fill="white"/>
</svg>
